<svg width="18" height="17" viewBox="0 0 18 17" fill="none" xmlns="http://www.w3.org/2000/svg">
<path d="M16.0067 0H2.40448C1.56946 0 0.893127 0.673157 0.893127 1.50426V15.0426C0.893127 15.8737 1.56946 16.5469 2.40448 16.5469H9.96126V9.7777H7.69423V7.52131H9.96126V6.30962C9.96126 4.01563 11.0842 3.00852 12.9998 3.00852C13.9172 3.00852 14.4024 3.07621 14.6321 3.10705V5.26491H13.3255C12.5124 5.26491 12.2283 5.69213 12.2283 6.55708V7.52131H14.6117L14.2883 9.7777H12.2283V16.5469H16.0067C16.8417 16.5469 17.518 15.8737 17.518 15.0426V1.50426C17.518 0.673157 16.8409 0 16.0067 0Z" fill="white"/>
</svg>
