<svg width="16" height="17" viewBox="0 0 16 17" fill="none" xmlns="http://www.w3.org/2000/svg">
<path d="M4.78343 0C2.23457 0 0.160461 2.19339 0.160461 4.88885V11.658C0.160461 14.3535 2.23457 16.5469 4.78343 16.5469H11.1845C13.7333 16.5469 15.8074 14.3535 15.8074 11.658V4.88885C15.8074 2.19339 13.7333 0 11.1845 0H4.78343ZM4.78343 0.752131H11.1845C13.3489 0.752131 15.0962 2.59993 15.0962 4.88885V11.658C15.0962 13.9469 13.3489 15.7947 11.1845 15.7947H4.78343C2.619 15.7947 0.871687 13.9469 0.871687 11.658V4.88885C0.871687 2.59993 2.619 0.752131 4.78343 0.752131ZM12.2513 3.00852C12.0627 3.00852 11.8818 3.08776 11.7484 3.22882C11.615 3.36987 11.5401 3.56118 11.5401 3.76065C11.5401 3.96013 11.615 4.15144 11.7484 4.29249C11.8818 4.43354 12.0627 4.51278 12.2513 4.51278C12.4399 4.51278 12.6208 4.43354 12.7542 4.29249C12.8876 4.15144 12.9625 3.96013 12.9625 3.76065C12.9625 3.56118 12.8876 3.36987 12.7542 3.22882C12.6208 3.08776 12.4399 3.00852 12.2513 3.00852ZM7.98395 4.13672C5.82776 4.13672 4.0722 5.99325 4.0722 8.27344C4.0722 10.5536 5.82776 12.4102 7.98395 12.4102C10.1401 12.4102 11.8957 10.5536 11.8957 8.27344C11.8957 5.99325 10.1401 4.13672 7.98395 4.13672ZM7.98395 4.88885C9.75576 4.88885 11.1845 6.39973 11.1845 8.27344C11.1845 10.1471 9.75576 11.658 7.98395 11.658C6.21214 11.658 4.78343 10.1471 4.78343 8.27344C4.78343 6.39973 6.21214 4.88885 7.98395 4.88885Z" fill="white"/>
</svg>
