<svg width="18" height="18" viewBox="0 0 18 18" fill="none" xmlns="http://www.w3.org/2000/svg">
<path d="M15.358 0H2.42747C1.40689 0 0.580261 0.874169 0.580261 1.95345V15.6276C0.580261 16.7069 1.40689 17.5811 2.42747 17.5811H15.358C16.3785 17.5811 17.2052 16.7069 17.2052 15.6276V1.95345C17.2052 0.874169 16.3785 0 15.358 0ZM6.1219 13.6742H3.79164V6.83708H6.1219V13.6742ZM4.91567 5.58394C4.20357 5.58394 3.72791 5.0819 3.72791 4.41187C3.72791 3.74183 4.20264 3.2398 4.99417 3.2398C5.70627 3.2398 6.18193 3.74183 6.18193 4.41187C6.18193 5.0819 5.7072 5.58394 4.91567 5.58394ZM14.4344 13.6742H12.1789V9.9372C12.1789 8.90383 11.5776 8.66551 11.3523 8.66551C11.1269 8.66551 10.3751 8.82471 10.3751 9.9372C10.3751 10.0964 10.3751 13.6742 10.3751 13.6742H8.04485V6.83708H10.3751V7.79134C10.6753 7.2346 11.2765 6.83708 12.4043 6.83708C13.532 6.83708 14.4344 7.79134 14.4344 9.9372V13.6742Z" fill="white"/>
</svg>
