<svg width="19" height="16" viewBox="0 0 19 16" fill="none" xmlns="http://www.w3.org/2000/svg">
<path d="M18.0533 0C17.3668 0.448871 15.9894 1.06061 15.1796 1.23706C15.1559 1.24385 15.1365 1.25257 15.1136 1.25936C14.3981 0.481833 13.4176 0 12.3324 0C10.1452 0 8.37172 1.95351 8.37172 4.36267C8.37172 4.48968 8.36204 4.72332 8.37172 4.84741C5.4206 4.84741 3.17448 3.145 1.56382 0.969483C1.38867 1.45422 1.3121 2.22012 1.3121 2.93947C1.3121 4.29772 2.27585 5.63173 3.7765 6.4587C3.50013 6.53722 3.1956 6.59345 2.87875 6.59345C2.36739 6.59345 1.8261 6.44512 1.33058 5.99528C1.33058 6.01176 1.33058 6.02728 1.33058 6.04473C1.33058 7.94297 3.15952 9.23529 4.78602 9.59497C4.45597 9.80923 3.79058 9.83056 3.46581 9.83056C3.23697 9.83056 2.42724 9.71519 2.21072 9.67059C2.66312 11.2266 4.2949 12.1011 5.85011 12.1321C4.63376 13.183 3.7897 13.5728 1.2989 13.5728H0.450439C2.02413 14.6838 4.02822 15.5127 6.0367 15.5127C12.5762 15.5127 16.293 10.0225 16.293 4.84741C16.293 4.76404 16.2912 4.58953 16.2886 4.41406C16.2886 4.39661 16.293 4.38012 16.293 4.36267C16.293 4.3365 16.286 4.31129 16.286 4.28511C16.2833 4.15326 16.2807 4.03014 16.278 3.96615C16.9733 3.41355 17.5762 2.72425 18.0533 1.93897C17.4152 2.25114 16.7304 2.46055 16.0114 2.55556C16.7454 2.07082 17.7884 0.915192 18.0533 0Z" fill="white"/>
</svg>
