<svg width="18" height="14" viewBox="0 0 18 14" fill="none" xmlns="http://www.w3.org/2000/svg">
<path d="M17.2427 1.83683C17.0403 1.1142 16.4435 0.544496 15.6866 0.351233C14.3136 1.75294e-07 8.80917 0 8.80917 0C8.80917 0 3.30476 1.75294e-07 1.93174 0.351233C1.17482 0.544496 0.578084 1.1142 0.375651 1.83683C0.00775144 3.14766 0.00775146 6.72217 0.00775146 6.72217C0.00775146 6.72217 0.00775144 10.2967 0.375651 11.6075C0.578084 12.3301 1.17482 12.8998 1.93174 13.0931C3.30476 13.4443 8.80917 13.4443 8.80917 13.4443C8.80917 13.4443 14.3136 13.4443 15.6866 13.0931C16.4444 12.8998 17.0403 12.3301 17.2427 11.6075C17.6106 10.2967 17.6106 6.72217 17.6106 6.72217C17.6106 6.72217 17.6106 3.14766 17.2427 1.83683ZM7.04889 9.63287V3.81147L12.3297 6.72217L7.04889 9.63287Z" fill="white"/>
</svg>
