<svg width="45" height="45" viewBox="0 0 45 45" fill="none" xmlns="http://www.w3.org/2000/svg">
<rect width="44.6565" height="45" fill="black"/>
<path d="M29.0067 14H15.4045C14.5695 14 13.8931 14.6732 13.8931 15.5043V29.0426C13.8931 29.8737 14.5695 30.5469 15.4045 30.5469H22.9613V23.7777H20.6942V21.5213H22.9613V20.3096C22.9613 18.0156 24.0842 17.0085 25.9998 17.0085C26.9172 17.0085 27.4024 17.0762 27.6321 17.1071V19.2649H26.3255C25.5124 19.2649 25.2283 19.6921 25.2283 20.5571V21.5213H27.6117L27.2883 23.7777H25.2283V30.5469H29.0067C29.8417 30.5469 30.518 29.8737 30.518 29.0426V15.5043C30.518 14.6732 29.8409 14 29.0067 14Z" fill="white"/>
</svg>
